<svg width="86" height="16" viewBox="0 0 86 16" fill="none" xmlns="http://www.w3.org/2000/svg">
<path d="M10.14 15C10.0067 15 9.92 14.9333 9.88 14.8L9.22 12.66C9.19333 12.6067 9.16 12.58 9.12 12.58H3.84C3.8 12.58 3.76667 12.6067 3.74 12.66L3.08 14.8C3.04 14.9333 2.95333 15 2.82 15H0.82C0.74 15 0.68 14.98 0.64 14.94C0.6 14.8867 0.593333 14.8133 0.62 14.72L4.96 1.2C5 1.06667 5.08667 0.999999 5.22 0.999999H7.72C7.85333 0.999999 7.94 1.06667 7.98 1.2L12.34 14.72C12.3533 14.7467 12.36 14.78 12.36 14.82C12.36 14.94 12.2867 15 12.14 15H10.14ZM4.36 10.64C4.34667 10.72 4.37333 10.76 4.44 10.76H8.5C8.58 10.76 8.60667 10.72 8.58 10.64L6.52 3.94C6.50667 3.88667 6.48667 3.86 6.46 3.86C6.43333 3.86 6.41333 3.88667 6.4 3.94L4.36 10.64ZM25.1488 4.62C26.1754 4.62 26.9754 4.93333 27.5488 5.56C28.1354 6.17333 28.4288 7.03333 28.4288 8.14V14.76C28.4288 14.8267 28.4021 14.8867 28.3488 14.94C28.3088 14.98 28.2554 15 28.1888 15H26.3688C26.3021 15 26.2421 14.98 26.1888 14.94C26.1488 14.8867 26.1288 14.8267 26.1288 14.76V8.62C26.1288 8.00667 25.9621 7.52 25.6288 7.16C25.3088 6.8 24.8754 6.62 24.3288 6.62C23.7821 6.62 23.3354 6.8 22.9888 7.16C22.6421 7.52 22.4688 8 22.4688 8.6V14.76C22.4688 14.8267 22.4421 14.8867 22.3888 14.94C22.3488 14.98 22.2954 15 22.2288 15H20.4088C20.3421 15 20.2821 14.98 20.2288 14.94C20.1888 14.8867 20.1688 14.8267 20.1688 14.76V8.62C20.1688 8.00667 20.0021 7.52 19.6688 7.16C19.3354 6.8 18.8954 6.62 18.3488 6.62C17.8421 6.62 17.4221 6.76667 17.0888 7.06C16.7688 7.35333 16.5821 7.75333 16.5288 8.26V14.76C16.5288 14.8267 16.5021 14.8867 16.4488 14.94C16.4088 14.98 16.3554 15 16.2888 15H14.4488C14.3821 15 14.3221 14.98 14.2688 14.94C14.2288 14.8867 14.2088 14.8267 14.2088 14.76V5.02C14.2088 4.95333 14.2288 4.9 14.2688 4.86C14.3221 4.80667 14.3821 4.78 14.4488 4.78H16.2888C16.3554 4.78 16.4088 4.80667 16.4488 4.86C16.5021 4.9 16.5288 4.95333 16.5288 5.02V5.68C16.5288 5.72 16.5421 5.74667 16.5688 5.76C16.5954 5.77333 16.6221 5.76 16.6488 5.72C16.9421 5.34667 17.3021 5.07333 17.7288 4.9C18.1688 4.71333 18.6554 4.62 19.1888 4.62C19.8421 4.62 20.4154 4.75333 20.9088 5.02C21.4021 5.28667 21.7821 5.67333 22.0488 6.18C22.0888 6.23333 22.1354 6.23333 22.1888 6.18C22.4821 5.64667 22.8888 5.25333 23.4088 5C23.9288 4.74667 24.5088 4.62 25.1488 4.62ZM34.5908 15.12C33.7508 15.12 33.0108 15 32.3708 14.76C31.7441 14.5067 31.2574 14.1667 30.9108 13.74C30.5641 13.3 30.3908 12.8133 30.3908 12.28V12.1C30.3908 12.0333 30.4108 11.98 30.4508 11.94C30.5041 11.8867 30.5641 11.86 30.6308 11.86H32.3908C32.4574 11.86 32.5108 11.8867 32.5508 11.94C32.6041 11.98 32.6308 12.0333 32.6308 12.1V12.14C32.6308 12.4733 32.8108 12.7667 33.1708 13.02C33.5441 13.26 34.0108 13.38 34.5708 13.38C35.1041 13.38 35.5374 13.2733 35.8708 13.06C36.2041 12.8333 36.3708 12.5533 36.3708 12.22C36.3708 11.9133 36.2308 11.6867 35.9508 11.54C35.6841 11.38 35.2441 11.2133 34.6308 11.04L33.8708 10.8C33.1908 10.6 32.6174 10.3867 32.1508 10.16C31.6841 9.93333 31.2908 9.62667 30.9708 9.24C30.6508 8.84 30.4908 8.33333 30.4908 7.72C30.4908 6.78667 30.8574 6.04667 31.5908 5.5C32.3241 4.94 33.2908 4.66 34.4908 4.66C35.3041 4.66 36.0174 4.79333 36.6308 5.06C37.2441 5.31333 37.7174 5.67333 38.0508 6.14C38.3841 6.59333 38.5508 7.11333 38.5508 7.7C38.5508 7.76667 38.5241 7.82667 38.4708 7.88C38.4308 7.92 38.3774 7.94 38.3108 7.94H36.6108C36.5441 7.94 36.4841 7.92 36.4308 7.88C36.3908 7.82667 36.3708 7.76667 36.3708 7.7C36.3708 7.35333 36.1974 7.06667 35.8508 6.84C35.5174 6.6 35.0574 6.48 34.4708 6.48C33.9508 6.48 33.5241 6.58 33.1908 6.78C32.8708 6.96667 32.7108 7.23333 32.7108 7.58C32.7108 7.9 32.8641 8.14667 33.1708 8.32C33.4908 8.48 34.0174 8.66 34.7508 8.86L35.1908 8.98C35.8974 9.19333 36.4908 9.41333 36.9708 9.64C37.4508 9.85333 37.8574 10.16 38.1908 10.56C38.5241 10.9467 38.6908 11.4533 38.6908 12.08C38.6908 13.0267 38.3174 13.7733 37.5708 14.32C36.8241 14.8533 35.8308 15.12 34.5908 15.12ZM46.0545 6.42C46.0545 6.48667 46.0279 6.54667 45.9745 6.6C45.9345 6.64 45.8812 6.66 45.8145 6.66H43.7745C43.7079 6.66 43.6745 6.69333 43.6745 6.76V11.58C43.6745 12.0867 43.7812 12.4533 43.9945 12.68C44.2212 12.9067 44.5745 13.02 45.0545 13.02H45.6545C45.7212 13.02 45.7745 13.0467 45.8145 13.1C45.8679 13.14 45.8945 13.1933 45.8945 13.26V14.76C45.8945 14.9067 45.8145 14.9933 45.6545 15.02L44.6145 15.04C43.5612 15.04 42.7745 14.86 42.2545 14.5C41.7345 14.14 41.4679 13.46 41.4545 12.46V6.76C41.4545 6.69333 41.4212 6.66 41.3545 6.66H40.2145C40.1479 6.66 40.0879 6.64 40.0345 6.6C39.9945 6.54667 39.9745 6.48667 39.9745 6.42V5.02C39.9745 4.95333 39.9945 4.9 40.0345 4.86C40.0879 4.80667 40.1479 4.78 40.2145 4.78H41.3545C41.4212 4.78 41.4545 4.74667 41.4545 4.68V2.34C41.4545 2.27333 41.4745 2.22 41.5145 2.18C41.5679 2.12667 41.6279 2.1 41.6945 2.1H43.4345C43.5012 2.1 43.5545 2.12667 43.5945 2.18C43.6479 2.22 43.6745 2.27333 43.6745 2.34V4.68C43.6745 4.74667 43.7079 4.78 43.7745 4.78H45.8145C45.8812 4.78 45.9345 4.80667 45.9745 4.86C46.0279 4.9 46.0545 4.95333 46.0545 5.02V6.42ZM56.5397 8.74C56.593 9.07333 56.6197 9.44667 56.6197 9.86L56.5997 10.48C56.5997 10.64 56.5197 10.72 56.3597 10.72H50.0997C50.033 10.72 49.9997 10.7533 49.9997 10.82C50.0397 11.26 50.0997 11.56 50.1797 11.72C50.4997 12.68 51.2797 13.1667 52.5197 13.18C53.4264 13.18 54.1464 12.8067 54.6797 12.06C54.733 11.98 54.7997 11.94 54.8797 11.94C54.933 11.94 54.9797 11.96 55.0197 12L56.2597 13.02C56.3797 13.1133 56.3997 13.22 56.3197 13.34C55.9064 13.9267 55.353 14.38 54.6597 14.7C53.9797 15.02 53.2197 15.18 52.3797 15.18C51.3397 15.18 50.453 14.9467 49.7197 14.48C48.9997 14.0133 48.473 13.36 48.1397 12.52C47.833 11.8 47.6797 10.8 47.6797 9.52C47.6797 8.74667 47.7597 8.12 47.9197 7.64C48.1864 6.70667 48.6864 5.97333 49.4197 5.44C50.1664 4.89333 51.0597 4.62 52.0997 4.62C54.7264 4.62 56.2064 5.99333 56.5397 8.74ZM52.0997 6.62C51.6064 6.62 51.193 6.74667 50.8597 7C50.5397 7.24 50.313 7.58 50.1797 8.02C50.0997 8.24667 50.0464 8.54 50.0197 8.9C49.993 8.96667 50.0197 9 50.0997 9H54.1597C54.2264 9 54.2597 8.96667 54.2597 8.9C54.233 8.56667 54.193 8.31333 54.1397 8.14C54.0197 7.66 53.7797 7.28667 53.4197 7.02C53.073 6.75333 52.633 6.62 52.0997 6.62ZM63.5 4.66C63.9267 4.66 64.3 4.74667 64.62 4.92C64.7267 4.97333 64.7667 5.07333 64.74 5.22L64.4 7.02C64.3867 7.18 64.2933 7.22667 64.12 7.16C63.92 7.09333 63.6867 7.06 63.42 7.06C63.2467 7.06 63.1133 7.06667 63.02 7.08C62.46 7.10667 61.9933 7.30667 61.62 7.68C61.2467 8.04 61.06 8.51333 61.06 9.1V14.76C61.06 14.8267 61.0333 14.8867 60.98 14.94C60.94 14.98 60.8867 15 60.82 15H58.98C58.9133 15 58.8533 14.98 58.8 14.94C58.76 14.8867 58.74 14.8267 58.74 14.76V5.02C58.74 4.95333 58.76 4.9 58.8 4.86C58.8533 4.80667 58.9133 4.78 58.98 4.78H60.82C60.8867 4.78 60.94 4.80667 60.98 4.86C61.0333 4.9 61.06 4.95333 61.06 5.02V5.92C61.06 5.97333 61.0667 6.00667 61.08 6.02C61.1067 6.02 61.1333 6 61.16 5.96C61.72 5.09333 62.5 4.66 63.5 4.66ZM72.4042 1.24C72.4042 1.17333 72.4242 1.12 72.4642 1.08C72.5176 1.02667 72.5776 0.999999 72.6442 0.999999H74.4842C74.5509 0.999999 74.6042 1.02667 74.6442 1.08C74.6976 1.12 74.7242 1.17333 74.7242 1.24V14.76C74.7242 14.8267 74.6976 14.8867 74.6442 14.94C74.6042 14.98 74.5509 15 74.4842 15H72.6442C72.5776 15 72.5176 14.98 72.4642 14.94C72.4242 14.8867 72.4042 14.8267 72.4042 14.76V14.16C72.4042 14.12 72.3909 14.0933 72.3642 14.08C72.3376 14.0667 72.3109 14.08 72.2842 14.12C71.6976 14.8133 70.9309 15.16 69.9842 15.16C69.0376 15.16 68.2376 14.9133 67.5842 14.42C66.9309 13.9267 66.4576 13.24 66.1642 12.36C65.9242 11.6133 65.8042 10.78 65.8042 9.86C65.8042 8.91333 65.9176 8.1 66.1442 7.42C66.4376 6.54 66.9109 5.85333 67.5642 5.36C68.2176 4.86667 69.0376 4.62 70.0242 4.62C70.9442 4.62 71.6976 4.95333 72.2842 5.62C72.3109 5.64667 72.3376 5.66 72.3642 5.66C72.3909 5.64667 72.4042 5.62 72.4042 5.58V1.24ZM71.9242 12.2C72.2309 11.6533 72.3842 10.88 72.3842 9.88C72.3842 8.84 72.2176 8.04667 71.8842 7.5C71.5242 6.91333 71.0176 6.62 70.3642 6.62C69.6842 6.62 69.1509 6.9 68.7642 7.46C68.3642 8.04667 68.1642 8.86 68.1642 9.9C68.1642 10.8333 68.3242 11.6 68.6442 12.2C69.0176 12.84 69.5842 13.16 70.3442 13.16C71.0242 13.16 71.5509 12.84 71.9242 12.2ZM81.1361 4.62C81.9761 4.62 82.7161 4.76667 83.3561 5.06C83.9961 5.35333 84.4894 5.76 84.8361 6.28C85.1828 6.78667 85.3561 7.36667 85.3561 8.02V14.76C85.3561 14.8267 85.3294 14.8867 85.2761 14.94C85.2361 14.98 85.1828 15 85.1161 15H83.2761C83.2094 15 83.1494 14.98 83.0961 14.94C83.0561 14.8867 83.0361 14.8267 83.0361 14.76V14.12C83.0361 14.08 83.0228 14.06 82.9961 14.06C82.9694 14.0467 82.9428 14.0533 82.9161 14.08C82.2628 14.8 81.3161 15.16 80.0761 15.16C79.0761 15.16 78.2494 14.9067 77.5961 14.4C76.9561 13.8933 76.6361 13.14 76.6361 12.14C76.6361 11.1 76.9961 10.2933 77.7161 9.72C78.4494 9.13333 79.4761 8.84 80.7961 8.84H82.9361C83.0028 8.84 83.0361 8.80667 83.0361 8.74V8.26C83.0361 7.74 82.8828 7.34 82.5761 7.06C82.2694 6.76667 81.8094 6.62 81.1961 6.62C80.6894 6.62 80.2761 6.71333 79.9561 6.9C79.6494 7.07333 79.4561 7.32 79.3761 7.64C79.3361 7.8 79.2428 7.86667 79.0961 7.84L77.1561 7.6C77.0894 7.58667 77.0294 7.56667 76.9761 7.54C76.9361 7.5 76.9228 7.45333 76.9361 7.4C77.0428 6.58667 77.4761 5.92 78.2361 5.4C79.0094 4.88 79.9761 4.62 81.1361 4.62ZM80.6561 13.32C81.3094 13.32 81.8694 13.1467 82.3361 12.8C82.8028 12.4533 83.0361 12.0133 83.0361 11.48V10.54C83.0361 10.4733 83.0028 10.44 82.9361 10.44H81.2561C80.5494 10.44 79.9894 10.5733 79.5761 10.84C79.1761 11.1067 78.9761 11.4867 78.9761 11.98C78.9761 12.4067 79.1294 12.74 79.4361 12.98C79.7561 13.2067 80.1628 13.32 80.6561 13.32ZM82.4761 3.32C82.2228 3.32 82.0094 3.29333 81.8361 3.24C81.6628 3.17333 81.4428 3.07333 81.1761 2.94C81.1361 2.91333 81.0361 2.86667 80.8761 2.8C80.7294 2.72 80.6028 2.66667 80.4961 2.64C80.3894 2.6 80.2828 2.58 80.1761 2.58C79.9494 2.58 79.7494 2.62 79.5761 2.7C79.4161 2.76667 79.2628 2.88 79.1161 3.04C79.0494 3.10667 78.9828 3.14 78.9161 3.14C78.8628 3.14 78.8161 3.11333 78.7761 3.06L78.1361 2.38C78.0294 2.27333 78.0161 2.16667 78.0961 2.06C78.3094 1.7 78.5828 1.42 78.9161 1.22C79.2628 1.02 79.6428 0.919999 80.0561 0.919999C80.3228 0.919999 80.5494 0.959999 80.7361 1.04C80.9228 1.10667 81.1694 1.22 81.4761 1.38C81.7294 1.51333 81.9228 1.60667 82.0561 1.66C82.1894 1.71333 82.3294 1.74 82.4761 1.74C82.8761 1.74 83.2094 1.57333 83.4761 1.24C83.5428 1.17333 83.6028 1.14 83.6561 1.14C83.7228 1.14 83.7761 1.16667 83.8161 1.22L84.3961 1.9C84.4761 1.99333 84.4961 2.09333 84.4561 2.2C84.2828 2.54667 84.0161 2.82 83.6561 3.02C83.3094 3.22 82.9161 3.32 82.4761 3.32Z" fill="#47585B"/>
</svg>
